<svg width="1024" height="1024" viewBox="0 0 1024 1024" fill="none" xmlns="http://www.w3.org/2000/svg">
  <defs>
    <linearGradient id="bg" x1="120" y1="80" x2="900" y2="940" gradientUnits="userSpaceOnUse">
      <stop stop-color="#FB923C"/>
      <stop offset="1" stop-color="#EA580C"/>
    </linearGradient>
    <filter id="softShadow" x="-20%" y="-20%" width="140%" height="140%">
      <feDropShadow dx="18" dy="24" stdDeviation="18" flood-color="#0F172A" flood-opacity=".22"/>
    </filter>
  </defs>
  <rect x="0" y="0" width="1024" height="1024" rx="224" fill="url(#bg)"/>
  <path d="M164 334h696v38H164v-38Zm0 194h696v38H164v-38Zm0 192h696v38H164v-38Z" fill="white"/>
  <path d="M350 256h38v530h-38V256Zm286 0h38v530h-38V256Z" fill="white" opacity=".94"/>
  <g filter="url(#softShadow)">
    <path d="M482 510h300v244H482V510Z" fill="#FFF7ED"/>
    <path d="M482 510l150-106 150 106H482Z" fill="#FFEDD5"/>
    <path d="M604 510h56v244h-56V510Z" fill="#FDBA74"/>
    <path d="M482 510h300" stroke="white" stroke-width="12" opacity=".65"/>
    <circle cx="542" cy="590" r="38" fill="#EA580C"/>
    <circle cx="542" cy="590" r="14" fill="white"/>
  </g>
</svg>
