<svg width="1600" height="480" viewBox="0 0 1600 480" fill="none" xmlns="http://www.w3.org/2000/svg">
  <rect width="1600" height="480" rx="64" fill="#F8FAFC"/>
  <rect x="120" y="88" width="304" height="304" rx="72" fill="url(#g)"/>
  <path d="M166 192h212v13H166v-13Zm0 59h212v13H166v-13Zm0 59h212v13H166v-13Z" fill="white"/>
  <path d="M223 168h13v166h-13V168Zm86 0h13v166h-13V168Z" fill="white" opacity=".94"/>
  <path d="M264 245h92v78h-92v-78Z" fill="#FFF7ED"/>
  <path d="M264 245l46-33 46 33h-92Z" fill="#FFEDD5"/>
  <path d="M302 245h16v78h-16v-78Z" fill="#FDBA74"/>
  <circle cx="285" cy="272" r="12" fill="#EA580C"/>
  <circle cx="285" cy="272" r="5" fill="white"/>
  <text x="480" y="230" font-family="Segoe UI, Arial, sans-serif" font-size="108" font-weight="800" fill="#0F172A">Kargo Raf</text>
  <text x="486" y="300" font-family="Segoe UI, Arial, sans-serif" font-size="34" font-weight="600" fill="#64748B">H1zl1 kargo kay1t ve raf takip sistemi</text>
  <rect x="486" y="332" width="330" height="52" rx="26" fill="#FFF7ED" stroke="#FDBA74"/>
  <text x="516" y="367" font-family="Segoe UI, Arial, sans-serif" font-size="24" font-weight="700" fill="#EA580C">Paket " Raf " Teslim</text>
  <defs>
    <linearGradient id="g" x1="120" y1="88" x2="424" y2="392" gradientUnits="userSpaceOnUse">
      <stop stop-color="#FB923C"/>
      <stop offset="1" stop-color="#EA580C"/>
    </linearGradient>
  </defs>
</svg>
